<?xml version="1.0" encoding="UTF-8" standalone="no"?>
<svg
   viewBox="0 0 24 24"
   version="1.1"
   id="svg48"
   sodipodi:docname="viewlikewhite.svg"
   inkscape:version="1.1.1 (3bf5ae0d25, 2021-09-20)"
   xmlns:inkscape="http://www.inkscape.org/namespaces/inkscape"
   xmlns:sodipodi="http://sodipodi.sourceforge.net/DTD/sodipodi-0.dtd"
   xmlns="http://www.w3.org/2000/svg"
   xmlns:svg="http://www.w3.org/2000/svg"
   xmlns:rdf="http://www.w3.org/1999/02/22-rdf-syntax-ns#"
   xmlns:cc="http://creativecommons.org/ns#"
   xmlns:dc="http://purl.org/dc/elements/1.1/">
  <sodipodi:namedview
     id="namedview50"
     pagecolor="#505050"
     bordercolor="#eeeeee"
     borderopacity="1"
     inkscape:pageshadow="0"
     inkscape:pageopacity="0"
     inkscape:pagecheckerboard="0"
     showgrid="false"
     inkscape:zoom="22.627417"
     inkscape:cx="12.308077"
     inkscape:cy="6.6954173"
     inkscape:window-width="2560"
     inkscape:window-height="1417"
     inkscape:window-x="-8"
     inkscape:window-y="1432"
     inkscape:window-maximized="1"
     inkscape:current-layer="g10841" />
  <defs
     id="defs38">
    <style
       id="style36">.a{fill:none;stroke:#000;stroke-linecap:round;stroke-linejoin:round;}</style>
    <clipPath
       clipPathUnits="userSpaceOnUse"
       id="clipPath11384">
      <rect
         style="fill:#0000ff;fill-rule:evenodd"
         id="rect11386"
         width="24.130018"
         height="24.04163"
         x="0"
         y="0" />
    </clipPath>
  </defs>
  <title
     id="title40">like-1</title>
  <style
     type="text/css"
     id="style132">
	.st0{fill:none;stroke:#000000;stroke-width:2;stroke-miterlimit:10;}
	.st1{fill:none;stroke:#000000;stroke-width:2;stroke-linejoin:round;stroke-miterlimit:10;}
	.st2{fill:none;stroke:#000000;stroke-width:2;stroke-linecap:round;stroke-linejoin:round;stroke-miterlimit:10;}
	.st3{fill:none;stroke:#000000;stroke-width:2;stroke-linecap:round;stroke-miterlimit:10;}
	.st4{fill:none;stroke:#000000;stroke-width:2;stroke-linejoin:round;stroke-miterlimit:10;stroke-dasharray:3;}
</style>
  <g
     id="g146"
     transform="matrix(0.84142831,0,0,0.88202057,-1.8366898,-6.1216949)" />
  <g
     id="g10841"
     style="stroke:#ffffff;stroke-opacity:1">
    <path
       class="a"
       d="m 20.43716,18.404032 v 0 c 1.763352,0 1.763352,2.645029 0,2.645029 h -0.881676 c 0.730404,0 1.322514,0.59211 1.322514,1.322514 0,0.73091 -0.592486,0.881676 -1.322514,0.881676 h -5.730896 c -2.513659,0 -3.085867,-0.440838 -6.171734,-0.881676 v -7.494248 c 5.618247,-3.994666 12.30823,-13.90737313 7.494248,-2.204191 h 7.05341 c 0.730405,0 1.322515,0.59211 1.322515,1.322515 0,0.730909 -0.592487,1.763352 -1.322515,1.763352 h -0.881676 c 1.763352,0 1.763352,2.645029 0,2.645029 H 20.43716"
       id="path42"
       style="stroke-width:1.7;stroke:#ffffff;stroke-opacity:1;stroke-miterlimit:4;stroke-dasharray:none"
       sodipodi:nodetypes="csscssscccssscsc" />
    <path
       id="rect44"
       style="fill:none;stroke:#ffffff;stroke-width:1.7;stroke-linecap:round;stroke-linejoin:round;stroke-opacity:1;stroke-miterlimit:4;stroke-dasharray:none"
       class="a"
       d="m 7.6378365,15.65596 -0.0625,3.836932 -0.0625,3.836933 H 3.104455 l -0.033551,-3.256412 z"
       sodipodi:nodetypes="cccccc" />
    <path
       class="st1"
       d="M 12.083529,23.442109 C 6.4643762,21.665097 3.2228354,16 3.2228354,16 c 0,0 5.8,-8 12.9999996,-8 2.956474,0 6.048286,2.02205 8.228019,3.612051 z"
       id="path134"
       sodipodi:nodetypes="ccscc"
       transform="matrix(0.84142831,0,0,0.88202057,-1.8366898,-6.1216949)"
       style="stroke:#ffffff;stroke-opacity:1;stroke-width:1.97333584;stroke-miterlimit:10;stroke-dasharray:none" />
    <path
       id="circle136"
       class="st1"
       style="fill:none;stroke:#ffffff;stroke-width:1.97333584;stroke-linejoin:round;stroke-miterlimit:10;stroke-opacity:1;stroke-dasharray:none"
       d="m 20.297114,15.68113 -4.461055,4.224738 C 13.197,19.836398 12,18.209139 12,16 c 0,-2.209139 1.790861,-4 4,-4 2.209139,0 4.135237,1.429421 4.297114,3.68113 z"
       sodipodi:nodetypes="ccssc"
       transform="matrix(0.84142831,0,0,0.88202057,-1.8366898,-6.1216949)" />
    <path
       style="fill:none;stroke:#ffffff;stroke-width:1.887;stroke-linecap:butt;stroke-linejoin:miter;stroke-opacity:1;stroke-miterlimit:4;stroke-dasharray:none"
       d="M -1.0178312,24.293056 24.661571,-1.4362678"
       id="path353"
       sodipodi:nodetypes="cc"
       clip-path="url(#clipPath11384)" />
  </g>
  <metadata
     id="metadata12015">
    <rdf:RDF>
      <cc:Work
         rdf:about="">
        <dc:title>like-1</dc:title>
      </cc:Work>
    </rdf:RDF>
  </metadata>
</svg>
